<svg xmlns="http://www.w3.org/2000/svg" viewBox="0 0 1200 420"><rect width="1200" height="420" rx="28" fill="#101820"/><g font-family="Inter,Arial,sans-serif" fill="#F4F1EA"><text x="60" y="62" font-size="22" font-weight="700">APX · EVIDENCE-CONSTRAINED AGENT</text><text x="60" y="92" font-size="14" fill="#b8c1ca">Phased system · development</text><g font-size="15" font-weight="700"><rect x="55" y="155" width="170" height="78" rx="15" fill="#3e5f7a"/><text x="80" y="188">Evidence corpus</text><text x="80" y="211" font-size="11" font-weight="400">vendor / case data</text><rect x="270" y="155" width="170" height="78" rx="15" fill="#3e5f7a"/><text x="296" y="188">Hybrid retrieval</text><text x="296" y="211" font-size="11" font-weight="400">BM25 + dense + RRF</text><rect x="485" y="155" width="170" height="78" rx="15" fill="#3e5f7a"/><text x="511" y="188">Reranking</text><text x="511" y="211" font-size="11" font-weight="400">cross-encoder</text><rect x="700" y="155" width="170" height="78" rx="15" fill="#3e5f7a"/><text x="726" y="188">Validity gates</text><text x="726" y="211" font-size="11" font-weight="400">evidence checks</text><rect x="915" y="155" width="230" height="78" rx="15" fill="#b08d57"/><text x="944" y="188" fill="#101820">Decision + persistence</text><text x="944" y="211" fill="#101820" font-size="11" font-weight="400">guarded workflow</text></g><g stroke="#F4F1EA" stroke-width="2"><path d="M225 194h45m170 0h45m170 0h45m170 0h45"/></g><text x="60" y="300" font-size="15">Phase 1 deterministic foundation → Phase 2 retrieval → Phase 3 agent → Phase 4 decision pipeline → Phase 5 persistence</text><text x="60" y="350" font-size="13" fill="#b8c1ca">Architecture evidence only. The portfolio does not claim autonomous production operation or enterprise scale.</text></g></svg>