<svg xmlns="http://www.w3.org/2000/svg" viewBox="0 0 1440 900"><rect width="1440" height="900" fill="#0d1117"/><rect x="0" y="0" width="1440" height="76" fill="#121923" stroke="#26313b"/><text x="42" y="48" font-family="Arial,sans-serif" font-size="25" font-weight="700" fill="#fff">Eklakh Dewan</text><text x="300" y="48" font-family="Arial,sans-serif" font-size="14" fill="#aeb8c2">AI Engineer</text><g font-family="Arial,sans-serif" font-size="13" fill="#d7dee4"><text x="1060" y="48">Projects</text><text x="1140" y="48">Experience</text><text x="1245" y="48">Contact</text></g><rect x="70" y="125" width="1300" height="220" rx="22" fill="#151d27" stroke="#2b3742"/><text x="110" y="180" font-family="Arial,sans-serif" font-size="14" fill="#8fc9ff">ROLE-AWARE PORTFOLIO</text><text x="110" y="230" font-family="Arial,sans-serif" font-size="40" font-weight="700" fill="#fff">I build AI systems that retrieve, reason,</text><text x="110" y="278" font-family="Arial,sans-serif" font-size="40" font-weight="700" fill="#fff">recommend and execute.</text><rect x="110" y="305" width="190" height="42" rx="9" fill="#5d74ff"/><text x="143" y="332" font-family="Arial,sans-serif" font-size="13" fill="#fff">Explore AI Engineer</text><rect x="70" y="385" width="420" height="350" rx="18" fill="#151d27" stroke="#2b3742"/><text x="100" y="430" font-family="Arial,sans-serif" font-size="13" fill="#8fc9ff">FLAGSHIP</text><text x="100" y="470" font-family="Arial,sans-serif" font-size="24" font-weight="700" fill="#fff">Enterprise RAG</text><text x="100" y="505" font-family="Arial,sans-serif" font-size="13" fill="#aeb8c2">50 frozen queries</text><text x="100" y="535" font-family="Arial,sans-serif" font-size="13" fill="#aeb8c2">780 human judgments</text><text x="100" y="565" font-family="Arial,sans-serif" font-size="13" fill="#aeb8c2">Recall@10 +9.9%</text><text x="100" y="595" font-family="Arial,sans-serif" font-size="13" fill="#aeb8c2">nDCG@10 +7.0%</text><rect x="520" y="385" width="410" height="350" rx="18" fill="#151d27" stroke="#2b3742"/><text x="550" y="430" font-family="Arial,sans-serif" font-size="13" fill="#e4ba69">HAYA</text><text x="550" y="470" font-family="Arial,sans-serif" font-size="24" font-weight="700" fill="#fff">Evidence assistant</text><text x="550" y="510" font-family="Arial,sans-serif" font-size="13" fill="#aeb8c2">Role-aware context</text><text x="550" y="540" font-family="Arial,sans-serif" font-size="13" fill="#aeb8c2">Canonical project facts</text><text x="550" y="570" font-family="Arial,sans-serif" font-size="13" fill="#aeb8c2">Interview grounding</text><text x="550" y="600" font-family="Arial,sans-serif" font-size="13" fill="#aeb8c2">Cloudflare Worker boundary</text><rect x="960" y="385" width="410" height="350" rx="18" fill="#151d27" stroke="#2b3742"/><text x="990" y="430" font-family="Arial,sans-serif" font-size="13" fill="#8fc9ff">ROLE MAP</text><text x="990" y="470" font-family="Arial,sans-serif" font-size="19" font-weight="700" fill="#fff">6 targeted profiles</text><g font-family="Arial,sans-serif" font-size="12" fill="#cfd7de"><text x="990" y="510">01  AI Engineer</text><text x="990" y="540">02  ML Engineer</text><text x="990" y="570">03  AI Systems</text><text x="990" y="600">04  Data Science</text><text x="990" y="630">05  Data Analyst</text><text x="990" y="660">06  Web Developer</text></g><text x="70" y="790" font-family="Arial,sans-serif" font-size="13" fill="#71808c">PRODUCT VISUAL · based on the portfolio's documented architecture; not a captured website screenshot.</text></svg>